# xmcd
#
# Track frame offsets:
#	150
#	13283
#	22136
#	34340
#	47708
#	64861
#	77749
#	92335
#	104259
#	120760
#	130338
#	142860
#	157860
#	169504
#	180840
#	194969
#	204544
#	217466
#	226761
#	236680
#	248519
#	257458
#	271273
#	284477
#	297531
#
# Disc length: 4109 seconds
# Revision: 1
# Processed by: cddbd v1.5.2PL0 Copyright (c) Steve Scherf et al.
# Submitted via: dBpowerAMP V12.0
#
DISCID=64100b19
DTITLE=Nashville Fiddles - 100 Best of [CD2]_T
DYEAR=2005
DGENRE=Country
TTITLE0=Rollin' My Sweet Baby's Arms
TTITLE1=When Johnny Come Marching Home Again
TTITLE2=Down in the Valley
TTITLE3=I Won't Have to Cross Jordan Again
TTITLE4=Picture Turned Toward the Wall
TTITLE5=Star Spangled Banner
TTITLE6=Under the Double Eagle
TTITLE7=Amazing Grace
TTITLE8=Prisoner's Song
TTITLE9=Dixie
TTITLE10=Swanee River
TTITLE11=Uncloudy Day
TTITLE12=Bill Bailey
TTITLE13=When They Ring Those Golden Bells
TTITLE14=Mama, Put My Little Shoes Away
TTITLE15=Arkansas Traveler
TTITLE16=Old Rugged Cross
TTITLE17=Cindy
TTITLE18=Old Dan Tucker
TTITLE19=Sweet Hour of Prayer
TTITLE20=Reuben
TTITLE21=Life's Railway to Heaven
TTITLE22=Black Mountain Rag
TTITLE23=I Love to Tell the Story
TTITLE24=Faith of Our Fathers
EXTD=
EXTT0=
EXTT1=
EXTT2=
EXTT3=
EXTT4=
EXTT5=
EXTT6=
EXTT7=
EXTT8=
EXTT9=
EXTT10=
EXTT11=
EXTT12=
EXTT13=
EXTT14=
EXTT15=
EXTT16=
EXTT17=
EXTT18=
EXTT19=
EXTT20=
EXTT21=
EXTT22=
EXTT23=
EXTT24=
PLAYORDER=
